<?xml version="1.0" encoding="UTF-8"?>
<svg width="397px" height="277px" viewBox="0 0 397 277" version="1.1" xmlns="http://www.w3.org/2000/svg" xmlns:xlink="http://www.w3.org/1999/xlink">
    <!-- Generator: Sketch 43.2 (39069) - http://www.bohemiancoding.com/sketch -->
    <title>Group 28</title>
    <desc>Created with Sketch.</desc>
    <defs></defs>
    <g id="Page-1" stroke="none" stroke-width="1" fill="none" fill-rule="evenodd">
        <g id="Group-29" transform="translate(-571.000000, -125.968750)">
            <g id="Group-28" transform="translate(570.927151, 125.846926)">
                <g id="Group-27" transform="translate(0.402099, 0.174286)">
                    <g id="Group-19" transform="translate(247.842904, 0.099381)">
                        <g id="Group-16" transform="translate(0.286298, 32.782627)" fill="#777B83">
                            <polygon id="Polygon-3" points="29.7116271 0.0364713941 59.3269065 16.3985666 59.3269065 49.1227572 29.7116271 65.4848524 0.0963477206 49.1227572 0.0963477206 16.3985666"></polygon>
                            <polygon id="Polygon-3" points="29.7116271 32.7606619 59.3269065 49.1227572 59.3269065 81.8469477 29.7116271 98.2090429 0.0963477206 81.8469477 0.0963477206 49.1227572"></polygon>
                            <polygon id="Polygon-3" points="29.7116271 65.4848524 59.3269065 81.8469477 59.3269065 114.571138 29.7116271 130.933233 0.0963477206 114.571138 0.0963477206 81.8469477"></polygon>
                        </g>
                        <g id="Group-18" transform="translate(122.861740, 95.833745)" fill="#383A3F">
                            <polygon id="Polygon-3" points="12.7356041 0.00188911973 25.4278667 7.01421566 25.4278667 21.0388687 12.7356041 28.0511953 0.0433415064 21.0388687 0.0433415064 7.01421566"></polygon>
                            <polygon id="Polygon-3" points="12.7356041 14.0265422 25.4278667 21.0388687 25.4278667 35.0635218 12.7356041 42.0758483 0.0433415064 35.0635218 0.0433415064 21.0388687"></polygon>
                            <polygon id="Polygon-3" points="12.7356041 28.0511953 25.4278667 35.0635218 25.4278667 49.0881749 12.7356041 56.1005014 0.0433415064 49.0881749 0.0433415064 35.0635218"></polygon>
                        </g>
                        <path d="M123.077473,102.757916 L135.778036,95.7410041 L148.478598,102.757916 L123.077473,102.757916 Z M123.077473,102.757916 L148.478598,102.757916 L135.778036,109.774828 L123.077473,102.757916 Z" id="Combined-Shape" fill="#FFFFFF" opacity="0.203125" style="mix-blend-mode: overlay;"></path>
                        <g id="Group-17" transform="translate(93.252640, 70.069115)" fill="#777B83">
                            <polygon id="Polygon-3" points="21.1892499 0.0548942079 42.3430209 11.7421051 42.3430209 35.1165269 21.1892499 46.8037378 0.0354788984 35.1165269 0.0354788984 11.7421051"></polygon>
                            <polygon id="Polygon-3" points="21.1892499 23.429316 42.3430209 35.1165269 42.3430209 58.4909487 21.1892499 70.1781596 0.0354788984 58.4909487 0.0354788984 35.1165269"></polygon>
                            <polygon id="Polygon-3" points="21.1892499 46.8037378 42.3430209 58.4909487 42.3430209 81.8653705 21.1892499 93.5525814 0.0354788984 81.8653705 0.0354788984 58.4909487"></polygon>
                        </g>
                        <path d="M0.0476717961,49.1240302 L29.8292797,32.6700404 L59.6108876,49.1240302 L0.0476717961,49.1240302 Z M0.0476717961,49.1240302 L59.6108876,49.1240302 L29.8292797,65.57802 L0.0476717961,49.1240302 Z" id="Combined-Shape" fill="#FFFFFF" opacity="0.203125" style="mix-blend-mode: overlay;"></path>
                        <path d="M93.0751203,81.8125395 L114.330637,70.0691152 L135.586154,81.8125395 L93.0751203,81.8125395 Z M93.0751203,81.8125395 L135.586154,81.8125395 L114.330637,93.5559638 L93.0751203,81.8125395 Z" id="Combined-Shape" fill="#FFFFFF" opacity="0.203125" style="mix-blend-mode: overlay;"></path>
                        <polygon id="Polygon-3" fill="#383A3F" points="72.1368217 0.000633657617 114.444364 23.3750554 114.444364 70.123899 72.1368217 93.4983208 29.8292797 70.123899 29.8292797 23.3750554"></polygon>
                        <polygon id="Polygon-3" fill="#383A3F" points="72.1368217 46.7494772 114.444364 70.123899 114.444364 116.872743 72.1368217 140.247164 29.8292797 116.872743 29.8292797 70.123899"></polygon>
                        <polygon id="Polygon-3" fill="#383A3F" points="72.1368217 93.4983208 114.444364 116.872743 114.444364 163.621586 72.1368217 186.996008 29.8292797 163.621586 29.8292797 116.872743"></polygon>
                        <path d="M29.8292797,23.3750554 L72.1368217,0.000633657617 L114.444364,23.3750554 L29.8292797,23.3750554 Z M29.8292797,23.3750554 L114.444364,23.3750554 L72.1368217,46.7494772 L29.8292797,23.3750554 Z" id="Combined-Shape" fill="#FFFFFF" opacity="0.203125" style="mix-blend-mode: overlay;"></path>
                    </g>
                    <g id="Group-20" transform="translate(0.058826, 174.466235)" fill="#383A3F">
                        <path d="M58.0897963,75.0477857 C58.0897963,83.5673565 55.5695756,89.9205309 50.5290587,94.1074995 C45.4885418,98.2944681 38.2356931,100.387921 28.770295,100.387921 C25.7690712,100.387921 22.7486541,100.096658 19.708953,99.5141232 C16.669252,98.9315885 13.8989331,97.9485758 11.3979133,96.5650557 C8.89689346,95.1815357 6.79991598,93.3611419 5.10691793,91.1038197 C3.41391989,88.8464975 2.41352696,86.0794989 2.10570914,82.8027409 L15.2648554,82.8027409 C15.6496277,84.5503451 16.3037307,85.9702523 17.2271842,87.062505 C18.1506377,88.1547577 19.2472223,89.0103428 20.5169708,89.6292859 C21.7867193,90.2482291 23.1911171,90.6487158 24.7302062,90.8307579 C26.2692953,91.0128 27.8853147,91.1038197 29.5783127,91.1038197 C34.8881702,91.1038197 38.774312,89.8659519 41.2368546,87.3901792 C43.6993972,84.9144064 44.93065,81.3464345 44.93065,76.6861565 L44.93065,68.0574035 L44.6997878,68.0574035 C42.8528809,71.1885278 40.3326602,73.6278555 37.1390503,75.3754598 C33.9454403,77.1230641 30.5017801,77.9968531 26.8079661,77.9968531 C22.0367898,77.9968531 17.9775032,77.2140838 14.6299843,75.6485216 C11.2824654,74.0829595 8.51214657,71.9348947 6.31894456,69.2042631 C4.12574255,66.4736314 2.52896154,63.3243501 1.5285536,59.7563247 C0.528145668,56.1882993 0.0279492039,52.3654722 0.0279492039,48.2877289 C0.0279492039,44.501253 0.643575621,40.8968732 1.87484692,37.4744815 C3.10611823,34.0520898 4.87604418,31.04844 7.18467787,28.463442 C9.49331156,25.878444 12.3213454,23.821399 15.6688643,22.2922453 C19.0163831,20.7630915 22.8063333,19.9985261 27.0388284,19.9985261 C30.8095967,19.9985261 34.2724953,20.7448876 37.427628,22.2376329 C40.5827607,23.7303782 43.0067898,26.0786862 44.6997878,29.2826274 L44.93065,29.2826274 L44.93065,21.5276722 L58.0897963,21.5276722 L58.0897963,75.0477857 Z M28.8857261,68.1666282 C31.8099954,68.1666282 34.2917394,67.6023061 36.3310325,66.473645 C38.3703256,65.3449839 40.0248216,63.852261 41.2945701,61.9954315 C42.5643187,60.1386019 43.4877583,58.0269451 44.0649167,55.6603976 C44.6420751,53.2938502 44.93065,50.9091343 44.93065,48.5061784 C44.93065,46.1032225 44.6228368,43.7731184 44.0072012,41.5157962 C43.3915655,39.258474 42.4488876,37.2560408 41.179139,35.5084365 C39.9093905,33.7608323 38.2548945,32.377333 36.2156014,31.3578971 C34.1763083,30.3384613 31.733041,29.828751 28.8857261,29.828751 C25.9614567,29.828751 23.4989511,30.4112771 21.4981352,31.5763466 C19.4973193,32.7414161 17.8813,34.252343 16.6500287,36.1091725 C15.4187574,37.9660021 14.5337944,40.0776589 13.9951132,42.4442063 C13.456432,44.8107538 13.1870955,47.1590618 13.1870955,49.4892009 C13.1870955,51.8193399 13.4949087,54.0948322 14.1105443,56.3157459 C14.72618,58.5366597 15.6688579,60.520889 16.9386065,62.2684933 C18.208355,64.0160975 19.8243743,65.4360047 21.786713,66.5282574 C23.7490516,67.6205101 26.1153656,68.1666282 28.8857261,68.1666282 Z M98.7215461,79.5259992 C93.9503698,79.5259992 89.6986999,78.7796378 85.9664087,77.2868924 C82.2341176,75.7941471 79.0790322,73.7371021 76.5010579,71.1156957 C73.9230836,68.4942893 71.9607744,65.3632119 70.6140714,61.7223697 C69.2673685,58.0815274 68.5940271,54.076661 68.5940271,49.7076503 C68.5940271,45.4114565 69.2673685,41.4429979 70.6140714,37.8021557 C71.9607744,34.1613134 73.9230836,31.0302361 76.5010579,28.4088297 C79.0790322,25.7874232 82.2341176,23.7303782 85.9664087,22.2376329 C89.6986999,20.7448876 93.9503698,19.9985261 98.7215461,19.9985261 C103.492722,19.9985261 107.744392,20.7448876 111.476684,22.2376329 C115.208975,23.7303782 118.36406,25.7874232 120.942034,28.4088297 C123.520009,31.0302361 125.482318,34.1613134 126.829021,37.8021557 C128.175724,41.4429979 128.849065,45.4114565 128.849065,49.7076503 C128.849065,54.076661 128.175724,58.0815274 126.829021,61.7223697 C125.482318,65.3632119 123.520009,68.4942893 120.942034,71.1156957 C118.36406,73.7371021 115.208975,75.7941471 111.476684,77.2868924 C107.744392,78.7796378 103.492722,79.5259992 98.7215461,79.5259992 Z M98.7215461,69.6957743 C101.645815,69.6957743 104.185274,69.1132483 106.339999,67.9481788 C108.494724,66.7831092 110.26465,65.2539784 111.64983,63.3607405 C113.03501,61.4675025 114.054642,59.3376417 114.708755,56.9710943 C115.362867,54.6045468 115.689919,52.183423 115.689919,49.7076503 C115.689919,47.3046944 115.362867,44.9017746 114.708755,42.4988187 C114.054642,40.0958628 113.03501,37.9660021 111.64983,36.1091725 C110.26465,34.252343 108.494724,32.7414161 106.339999,31.5763466 C104.185274,30.4112771 101.645815,29.828751 98.7215461,29.828751 C95.7972768,29.828751 93.2578178,30.4112771 91.103093,31.5763466 C88.9483682,32.7414161 87.1784423,34.252343 85.7932621,36.1091725 C84.4080819,37.9660021 83.3884506,40.0958628 82.7343377,42.4988187 C82.0802249,44.9017746 81.7531733,47.3046944 81.7531733,49.7076503 C81.7531733,52.183423 82.0802249,54.6045468 82.7343377,56.9710943 C83.3884506,59.3376417 84.4080819,61.4675025 85.7932621,63.3607405 C87.1784423,65.2539784 88.9483682,66.7831092 91.103093,67.9481788 C93.2578178,69.1132483 95.7972768,69.6957743 98.7215461,69.6957743 Z M133.812603,21.5276722 L143.739678,21.5276722 L143.739678,4.59784041 L156.898824,4.59784041 L156.898824,21.5276722 L168.788228,21.5276722 L168.788228,30.8117735 L156.898824,30.8117735 L156.898824,60.9577966 C156.898824,62.2684998 156.956539,63.397144 157.071971,64.343763 C157.187403,65.2903819 157.456739,66.0913552 157.879989,66.7467068 C158.303238,67.4020584 158.938103,67.8935648 159.784602,68.2212406 C160.631101,68.5489164 161.785401,68.7127518 163.247535,68.7127518 C164.170989,68.7127518 165.094428,68.6945479 166.017882,68.6581395 C166.941335,68.621731 167.864775,68.4943035 168.788228,68.2758529 L168.788228,77.8876284 C167.326094,78.0332621 165.902458,78.1788936 164.517277,78.3245273 C163.132097,78.470161 161.708461,78.5429767 160.246326,78.5429767 C156.783376,78.5429767 153.993819,78.2335098 151.877571,77.6145666 C149.761324,76.9956234 148.106828,76.0854265 146.914034,74.8839486 C145.721239,73.6824706 144.91323,72.1715438 144.48998,70.3511226 C144.066731,68.5307015 143.816633,66.4554526 143.739678,64.1253135 L143.739678,30.8117735 L133.812603,30.8117735 L133.812603,21.5276722 Z M178.253579,0.0104021151 L191.412725,0.0104021151 L191.412725,28.9549533 L191.643588,28.9549533 C193.259631,26.4063637 195.664422,24.2765029 198.858032,22.5653071 C202.051642,20.8541112 205.610732,19.9985261 209.535409,19.9985261 C216.076538,19.9985261 221.232409,21.6004727 225.003178,24.8044139 C228.773946,28.008355 230.659302,32.8141947 230.659302,39.2220771 L230.659302,77.9968531 L217.500156,77.9968531 L217.500156,42.4988187 C217.346247,38.0569912 216.345854,34.8348941 214.498947,32.8324309 C212.65204,30.8299676 209.766291,29.828751 205.841614,29.828751 C203.609935,29.828751 201.609149,30.2110337 199.839196,30.9756106 C198.069244,31.7401875 196.568654,32.7960159 195.337383,34.1431275 C194.106112,35.4902392 193.144196,37.0739818 192.451605,38.8944029 C191.759015,40.714824 191.412725,42.6444415 191.412725,44.6833131 L191.412725,77.9968531 L178.253579,77.9968531 L178.253579,0.0104021151 Z M294.492704,65.4360102 C294.492704,66.9651639 294.704326,68.0574002 295.127576,68.7127518 C295.550825,69.3681034 296.378073,69.6957743 297.609344,69.6957743 L298.994518,69.6957743 C299.533199,69.6957743 300.148825,69.6229586 300.841415,69.4773249 L300.841415,78.1060778 C300.379689,78.2517115 299.783301,78.415547 299.052233,78.5975891 C298.321166,78.7796312 297.570871,78.9434667 296.801327,79.0891003 C296.031782,79.234734 295.262249,79.3439577 294.492704,79.4167745 C293.72316,79.4895913 293.069057,79.5259992 292.530376,79.5259992 C289.83697,79.5259992 287.605324,79.016289 285.835371,77.9968531 C284.065419,76.9774173 282.911119,75.1934314 282.372438,72.6448418 C279.755987,75.0477977 276.543186,76.7953757 272.733941,77.8876284 C268.924695,78.9798811 265.250175,79.5259992 261.71027,79.5259992 C259.016864,79.5259992 256.438928,79.1801244 253.976386,78.4883644 C251.513843,77.7966043 249.339912,76.7771838 247.454528,75.4300722 C245.569144,74.0829605 244.068555,72.3717904 242.952715,70.2965103 C241.836875,68.2212302 241.278964,65.8001064 241.278964,63.0330663 C241.278964,59.5378578 241.952305,56.6980434 243.299008,54.513538 C244.645711,52.3290327 246.415637,50.6178625 248.608839,49.3799761 C250.802041,48.1420898 253.264547,47.2500968 255.99643,46.7039705 C258.728313,46.1578441 261.479394,45.7391536 264.249754,45.4478862 C266.635342,45.0109851 268.905465,44.7015182 271.06019,44.519476 C273.214914,44.3374339 275.119509,44.027967 276.774029,43.5910659 C278.42855,43.1541648 279.736756,42.4806191 280.698687,41.5704086 C281.660618,40.660198 282.141576,39.2949026 282.141576,37.4744815 C282.141576,35.8725109 281.737571,34.5618274 280.929549,33.5423916 C280.121528,32.5229557 279.121135,31.7401864 277.928341,31.19406 C276.735546,30.6479337 275.408102,30.2838549 273.945967,30.1018128 C272.483833,29.9197707 271.098673,29.828751 269.790447,29.828751 C266.096634,29.828751 263.056978,30.5569086 260.67139,32.0132455 C258.285802,33.4695824 256.939119,35.7268707 256.631301,38.7851782 L243.472155,38.7851782 C243.703018,35.1443359 244.626458,32.1224822 246.242502,29.7195263 C247.858545,27.3165704 249.917046,25.386953 252.418066,23.9306161 C254.919086,22.4742792 257.747119,21.4548586 260.902252,20.8723239 C264.057385,20.2897891 267.289424,19.9985261 270.598465,19.9985261 C273.522735,19.9985261 276.408483,20.2897891 279.255798,20.8723239 C282.103113,21.4548586 284.66181,22.4014634 286.931967,23.7121666 C289.202123,25.0228698 291.029764,26.7158361 292.414945,28.7911162 C293.800125,30.8663963 294.492704,33.3967437 294.492704,36.3822343 L294.492704,65.4360102 Z M281.333558,49.7076503 C279.332742,50.9455367 276.870237,51.6918981 273.945967,51.9467571 C271.021698,52.2016161 268.097472,52.5838988 265.173203,53.0936167 C263.788023,53.3120672 262.44134,53.6215342 261.133114,54.0220268 C259.824889,54.4225194 258.670589,54.9686376 257.670181,55.6603976 C256.669773,56.3521576 255.881002,57.2623546 255.303843,58.3910157 C254.726685,59.5196767 254.43811,60.8849721 254.43811,62.4869427 C254.43811,63.8704628 254.861353,65.0355148 255.707852,65.9821338 C256.554351,66.9287528 257.573983,67.6751142 258.766777,68.2212406 C259.959571,68.7673669 261.267777,69.1496496 262.691434,69.3681001 C264.115092,69.5865507 265.40406,69.6957743 266.558376,69.6957743 C268.020511,69.6957743 269.598054,69.5137349 271.291052,69.1496507 C272.98405,68.7855665 274.580831,68.1666326 276.081443,67.2928304 C277.582055,66.4190283 278.832546,65.3085881 279.832954,63.9614764 C280.833362,62.6143648 281.333558,60.9578064 281.333558,58.9917516 L281.333558,49.7076503 Z M308.690731,21.5276722 L321.15729,21.5276722 L321.15729,29.3918521 L321.503584,29.3918521 C322.503992,28.0083321 323.581338,26.7340564 324.735655,25.5689869 C325.889971,24.4039174 327.178939,23.4209047 328.602597,22.6199194 C330.026254,21.8189341 331.661512,21.1817963 333.508419,20.7084868 C335.355326,20.2351773 337.471542,19.9985261 339.85713,19.9985261 C343.473989,19.9985261 346.840696,20.7630915 349.957352,22.2922453 C353.074007,23.821399 355.286415,26.187911 356.59464,29.3918521 C358.82632,26.4791783 361.404255,24.1854821 364.328524,22.5106947 C367.252794,20.8359073 370.908076,19.9985261 375.29448,19.9985261 C381.604745,19.9985261 386.510518,21.4548412 390.011946,24.367515 C393.513374,27.2801888 395.264061,32.1588442 395.264061,39.0036276 L395.264061,77.9968531 L382.104915,77.9968531 L382.104915,45.0109873 C382.104915,42.7536651 382.027962,40.6966201 381.874053,38.8397905 C381.720144,36.982961 381.277662,35.3810144 380.546595,34.0339028 C379.815528,32.6867912 378.718943,31.6491667 377.256809,30.9209982 C375.794674,30.1928298 373.793888,29.828751 371.254391,29.828751 C366.791032,29.828751 363.558994,31.1394346 361.558178,33.760841 C359.557362,36.3822474 358.556969,40.0958508 358.556969,44.9017626 L358.556969,77.9968531 L345.397823,77.9968531 L345.397823,41.7342457 C345.397823,37.802136 344.647528,34.8348941 343.146916,32.8324309 C341.646304,30.8299676 338.895224,29.828751 334.893592,29.828751 C333.200594,29.828751 331.565336,30.1564219 329.98777,30.8117735 C328.410204,31.4671251 327.025044,32.4137299 325.83225,33.6516163 C324.639456,34.8895026 323.67754,36.4186334 322.946472,38.2390546 C322.215405,40.0594757 321.849877,42.1347246 321.849877,44.4648637 L321.849877,77.9968531 L308.690731,77.9968531 L308.690731,21.5276722 Z" id="gotham"></path>
                    </g>
                </g>
                <path d="M232.844538,275.878936 L237.117625,262.489929 L234.838645,262.489929 L231.834535,273.444571 L231.78274,273.444571 L228.98581,262.489929 L226.577343,262.489929 L223.884003,273.444571 L223.832208,273.444571 L220.802201,262.489929 L218.367836,262.489929 L222.66682,275.878936 L225.04939,275.878936 L227.74273,265.235064 L227.794525,265.235064 L230.513763,275.878936 L232.844538,275.878936 Z M248.512525,267.902506 C248.477994,267.384553 248.361457,266.892506 248.162908,266.426349 C247.96436,265.960191 247.696755,265.558784 247.360086,265.222115 C247.023417,264.885446 246.626326,264.617841 246.168801,264.419292 C245.711276,264.220744 245.20628,264.121471 244.653797,264.121471 C244.084049,264.121471 243.570421,264.220744 243.112896,264.419292 C242.655371,264.617841 242.262596,264.889762 241.93456,265.235064 C241.606523,265.580365 241.347551,265.981773 241.157635,266.439297 C240.967719,266.896822 240.855497,267.384553 240.820967,267.902506 L248.512525,267.902506 Z M250.636119,271.631746 C250.342613,273.133808 249.695182,274.264654 248.693807,275.024318 C247.692432,275.783982 246.4321,276.163808 244.912772,276.163808 C243.842337,276.163808 242.914352,275.99116 242.128791,275.645858 C241.34323,275.300556 240.68285,274.817141 240.147632,274.195598 C239.612415,273.574055 239.211007,272.831668 238.943399,271.968413 C238.67579,271.105159 238.524723,270.164226 238.490192,269.145586 C238.490192,268.126946 238.645576,267.194645 238.956347,266.348656 C239.267119,265.502667 239.703056,264.768912 240.264171,264.147369 C240.825286,263.525826 241.489982,263.04241 242.258279,262.697109 C243.026575,262.351807 243.868235,262.179159 244.783285,262.179159 C245.974576,262.179159 246.962987,262.425182 247.748548,262.917237 C248.53411,263.409292 249.164276,264.035142 249.639066,264.794806 C250.113856,265.55447 250.441887,266.383182 250.623171,267.280966 C250.804454,268.17875 250.87783,269.033359 250.843299,269.844818 L240.820967,269.844818 C240.803702,270.431831 240.872762,270.988622 241.028147,271.515207 C241.183533,272.041792 241.433873,272.507943 241.779175,272.913672 C242.124476,273.319402 242.56473,273.643117 243.099947,273.884828 C243.635165,274.126539 244.265331,274.247393 244.990465,274.247393 C245.922779,274.247393 246.686748,274.031583 247.282393,273.599956 C247.878039,273.168329 248.270814,272.512265 248.46073,271.631746 L250.636119,271.631746 Z M253.199972,257.388121 L255.401259,257.388121 L255.401259,264.302754 L255.453054,264.302754 C255.815621,263.560355 256.38536,263.020829 257.162289,262.68416 C257.939218,262.347491 258.793827,262.179159 259.726142,262.179159 C260.762047,262.179159 261.664134,262.369072 262.43243,262.748904 C263.200727,263.128736 263.839525,263.642364 264.348845,264.289805 C264.858165,264.937246 265.242308,265.683949 265.501284,266.529939 C265.76026,267.375928 265.889746,268.273699 265.889746,269.223278 C265.889746,270.172858 265.764576,271.070629 265.514233,271.916618 C265.263889,272.762608 264.884063,273.500679 264.374743,274.130855 C263.865423,274.76103 263.226624,275.257394 262.458328,275.619961 C261.690031,275.982528 260.796577,276.163808 259.777937,276.163808 C259.4499,276.163808 259.083022,276.129279 258.677293,276.060218 C258.271563,275.991158 257.870156,275.878936 257.473059,275.723551 C257.075962,275.568165 256.700452,275.356671 256.346518,275.089062 C255.992584,274.821453 255.694765,274.489105 255.453054,274.092008 L255.401259,274.092008 L255.401259,275.878936 L253.199972,275.878936 L253.199972,257.388121 Z M263.558972,269.067893 C263.558972,268.44635 263.476964,267.837765 263.312945,267.24212 C263.148927,266.646474 262.898587,266.115581 262.561918,265.649424 C262.225249,265.183266 261.793628,264.812072 261.267043,264.535831 C260.740458,264.25959 260.12324,264.121471 259.415372,264.121471 C258.672973,264.121471 258.042807,264.268222 257.524854,264.561729 C257.006902,264.855235 256.583913,265.239377 256.255877,265.714167 C255.92784,266.188957 255.690449,266.728483 255.543696,267.332761 C255.396942,267.937039 255.323567,268.54994 255.323567,269.171483 C255.323567,269.827557 255.401259,270.462039 255.556644,271.07495 C255.71203,271.68786 255.958054,272.227386 256.294723,272.693543 C256.631392,273.159701 257.067329,273.535211 257.602547,273.820085 C258.137764,274.104958 258.785195,274.247393 259.544859,274.247393 C260.304523,274.247393 260.939005,274.100642 261.448325,273.807136 C261.957645,273.513629 262.367685,273.125171 262.678457,272.641748 C262.989228,272.158326 263.213671,271.605851 263.351792,270.984308 C263.489912,270.362765 263.558972,269.723967 263.558972,269.067893 Z M276.585414,264.432241 L276.585414,275.878936 L278.786701,275.878936 L278.786701,264.432241 L281.376451,264.432241 L281.376451,262.489929 L278.786701,262.489929 L278.786701,260.625309 C278.786701,260.038296 278.933452,259.641205 279.226958,259.434024 C279.520465,259.226843 279.934821,259.123254 280.470038,259.123254 C280.659954,259.123254 280.867132,259.136202 281.091578,259.1621 C281.316024,259.187998 281.523202,259.235476 281.713118,259.304536 L281.713118,257.388121 C281.505937,257.319061 281.268546,257.267267 281.000937,257.232736 C280.733328,257.198206 280.495937,257.180941 280.288756,257.180941 C279.0802,257.180941 278.160848,257.461495 277.530672,258.02261 C276.900497,258.583725 276.585414,259.408121 276.585414,260.495821 L276.585414,262.489929 L274.332331,262.489929 L274.332331,264.432241 L276.585414,264.432241 Z M283.266968,262.489929 L283.266968,275.878936 L285.468256,275.878936 L285.468256,269.922511 C285.468256,269.059257 285.55458,268.295288 285.727231,267.630582 C285.899882,266.965876 286.176119,266.400453 286.555951,265.934296 C286.935783,265.468139 287.436463,265.11421 288.058006,264.872499 C288.679549,264.630787 289.430569,264.509934 290.311088,264.509934 L290.311088,262.179159 C289.119797,262.144629 288.135702,262.386336 287.358773,262.904289 C286.581844,263.422241 285.925781,264.225056 285.390563,265.312756 L285.338768,265.312756 L285.338768,262.489929 L283.266968,262.489929 Z M303.829583,275.827141 C303.449751,276.051587 302.923173,276.163808 302.249835,276.163808 C301.680087,276.163808 301.226886,276.004109 300.890216,275.684704 C300.553547,275.3653 300.385215,274.843039 300.385215,274.117906 C299.780937,274.843039 299.077396,275.3653 298.274569,275.684704 C297.471743,276.004109 296.604185,276.163808 295.67187,276.163808 C295.067592,276.163808 294.493537,276.094749 293.949687,275.956628 C293.405836,275.818508 292.93537,275.602697 292.538273,275.309191 C292.141176,275.015684 291.826093,274.631542 291.593014,274.156752 C291.359936,273.681962 291.243398,273.107907 291.243398,272.434568 C291.243398,271.674905 291.372884,271.053371 291.631861,270.569948 C291.890837,270.086526 292.231817,269.693751 292.654812,269.391612 C293.077806,269.089473 293.561221,268.860714 294.105072,268.705328 C294.648922,268.549943 295.205713,268.420456 295.77546,268.316866 C296.379738,268.19601 296.953794,268.10537 297.497644,268.044942 C298.041494,267.984514 298.520593,267.89819 298.934955,267.785967 C299.349317,267.673744 299.677349,267.509728 299.91906,267.293915 C300.160771,267.078101 300.281625,266.763018 300.281625,266.348656 C300.281625,265.865234 300.190985,265.476775 300.009701,265.183269 C299.828418,264.889762 299.595343,264.665319 299.310469,264.509934 C299.025595,264.354548 298.706196,264.250959 298.352262,264.199164 C297.998327,264.147368 297.648715,264.121471 297.303413,264.121471 C296.371098,264.121471 295.594181,264.298436 294.972638,264.65237 C294.351095,265.006304 294.014431,265.675316 293.962635,266.659426 L291.761348,266.659426 C291.795878,265.830702 291.968526,265.131476 292.279298,264.561729 C292.59007,263.991981 293.004425,263.530147 293.522378,263.176212 C294.040331,262.822278 294.631651,262.567622 295.296357,262.412236 C295.961062,262.25685 296.673237,262.179159 297.4329,262.179159 C298.037178,262.179159 298.637131,262.222321 299.232776,262.308646 C299.828422,262.394972 300.367948,262.571936 300.85137,262.839545 C301.334793,263.107154 301.723251,263.482664 302.016758,263.966086 C302.310264,264.449509 302.457015,265.079675 302.457015,265.856604 L302.457015,272.745338 C302.457015,273.263291 302.487229,273.643117 302.547656,273.884828 C302.608084,274.126539 302.810946,274.247393 303.156248,274.247393 C303.346164,274.247393 303.570606,274.204231 303.829583,274.117906 L303.829583,275.827141 Z M300.255728,268.964303 C299.979486,269.171484 299.616925,269.322552 299.168033,269.41751 C298.719141,269.512468 298.248674,269.590159 297.756619,269.650587 C297.264564,269.711015 296.7682,269.780074 296.267513,269.857767 C295.766825,269.93546 295.31794,270.06063 294.920843,270.233281 C294.523746,270.405932 294.20003,270.651956 293.949687,270.97136 C293.699343,271.290764 293.574173,271.726701 293.574173,272.279183 C293.574173,272.64175 293.647548,272.948201 293.794302,273.198545 C293.941055,273.448888 294.130968,273.65175 294.364047,273.807136 C294.597125,273.962522 294.869046,274.074743 295.179818,274.143803 C295.490589,274.212864 295.818621,274.247393 296.163923,274.247393 C296.889056,274.247393 297.51059,274.148121 298.028543,273.949572 C298.546495,273.751024 298.969484,273.500684 299.29752,273.198545 C299.625557,272.896406 299.867264,272.568374 300.02265,272.21444 C300.178036,271.860505 300.255728,271.528157 300.255728,271.217386 L300.255728,268.964303 Z M305.875485,262.489929 L305.875485,275.878936 L308.076772,275.878936 L308.076772,267.539941 C308.076772,267.280965 308.141516,266.957249 308.271004,266.568785 C308.400492,266.18032 308.60767,265.80481 308.892544,265.442244 C309.177418,265.079677 309.548611,264.76891 310.006136,264.509934 C310.463661,264.250957 311.011819,264.121471 311.650627,264.121471 C312.151315,264.121471 312.561354,264.194847 312.880759,264.3416 C313.200163,264.488353 313.454819,264.695531 313.644735,264.96314 C313.834651,265.230749 313.968453,265.545832 314.046146,265.908399 C314.123839,266.270965 314.162685,266.668056 314.162685,267.099684 L314.162685,275.878936 L316.363972,275.878936 L316.363972,267.539941 C316.363972,266.504036 316.674739,265.675324 317.296282,265.053781 C317.917825,264.432238 318.772434,264.121471 319.860135,264.121471 C320.395352,264.121471 320.831289,264.199163 321.167958,264.354549 C321.504627,264.509934 321.767916,264.721429 321.957832,264.989037 C322.147748,265.256646 322.277234,265.571729 322.346294,265.934296 C322.415355,266.296863 322.449884,266.685321 322.449884,267.099684 L322.449884,275.878936 L324.651172,275.878936 L324.651172,266.063784 C324.651172,265.37318 324.543267,264.78186 324.327453,264.289805 C324.11164,263.79775 323.809505,263.396343 323.421041,263.085571 C323.032576,262.7748 322.566426,262.546041 322.022576,262.399287 C321.478725,262.252534 320.87014,262.179159 320.196802,262.179159 C319.316283,262.179159 318.509152,262.377704 317.775386,262.774801 C317.04162,263.171898 316.450299,263.733005 316.001407,264.458139 C315.725166,263.629414 315.250383,263.04241 314.577045,262.697109 C313.903706,262.351807 313.152686,262.179159 312.323962,262.179159 C310.442068,262.179159 309.000455,262.938811 307.99908,264.458139 L307.947285,264.458139 L307.947285,262.489929 L305.875485,262.489929 Z M337.263254,267.902506 C337.228724,267.384553 337.112186,266.892506 336.913638,266.426349 C336.715089,265.960191 336.447484,265.558784 336.110815,265.222115 C335.774146,264.885446 335.377055,264.617841 334.91953,264.419292 C334.462005,264.220744 333.957009,264.121471 333.404527,264.121471 C332.834779,264.121471 332.32115,264.220744 331.863625,264.419292 C331.406101,264.617841 331.013326,264.889762 330.685289,265.235064 C330.357253,265.580365 330.09828,265.981773 329.908364,266.439297 C329.718448,266.896822 329.606227,267.384553 329.571697,267.902506 L337.263254,267.902506 Z M339.386849,271.631746 C339.093342,273.133808 338.445911,274.264654 337.444536,275.024318 C336.443161,275.783982 335.182829,276.163808 333.663502,276.163808 C332.593066,276.163808 331.665082,275.99116 330.87952,275.645858 C330.093959,275.300556 329.433579,274.817141 328.898362,274.195598 C328.363144,273.574055 327.961737,272.831668 327.694128,271.968413 C327.426519,271.105159 327.275452,270.164226 327.240922,269.145586 C327.240922,268.126946 327.396305,267.194645 327.707077,266.348656 C328.017848,265.502667 328.453785,264.768912 329.0149,264.147369 C329.576016,263.525826 330.240712,263.04241 331.009008,262.697109 C331.777304,262.351807 332.618964,262.179159 333.534014,262.179159 C334.725305,262.179159 335.713716,262.425182 336.499278,262.917237 C337.284839,263.409292 337.915005,264.035142 338.389795,264.794806 C338.864585,265.55447 339.192617,266.383182 339.3739,267.280966 C339.555183,268.17875 339.628559,269.033359 339.594029,269.844818 L329.571697,269.844818 C329.554432,270.431831 329.623491,270.988622 329.778877,271.515207 C329.934262,272.041792 330.184602,272.507943 330.529904,272.913672 C330.875206,273.319402 331.315459,273.643117 331.850677,273.884828 C332.385894,274.126539 333.01606,274.247393 333.741194,274.247393 C334.673509,274.247393 335.437477,274.031583 336.033123,273.599956 C336.628768,273.168329 337.021543,272.512265 337.211459,271.631746 L339.386849,271.631746 Z M355.132528,275.878936 L359.405616,262.489929 L357.126636,262.489929 L354.122526,273.444571 L354.070731,273.444571 L351.273801,262.489929 L348.865333,262.489929 L346.171994,273.444571 L346.120199,273.444571 L343.090191,262.489929 L340.655826,262.489929 L344.954811,275.878936 L347.337381,275.878936 L350.030721,265.235064 L350.082516,265.235064 L352.801753,275.878936 L355.132528,275.878936 Z M363.108958,269.197381 C363.108958,270.00884 363.216863,270.729646 363.432677,271.359822 C363.64849,271.989998 363.946309,272.516575 364.32614,272.93957 C364.705972,273.362564 365.150542,273.68628 365.659862,273.910726 C366.169182,274.135172 366.708708,274.247393 367.278455,274.247393 C367.848203,274.247393 368.387729,274.135172 368.897049,273.910726 C369.406369,273.68628 369.850938,273.362564 370.23077,272.93957 C370.610602,272.516575 370.90842,271.989998 371.124234,271.359822 C371.340048,270.729646 371.447953,270.00884 371.447953,269.197381 C371.447953,268.385922 371.340048,267.665115 371.124234,267.03494 C370.90842,266.404764 370.610602,265.873871 370.23077,265.442244 C369.850938,265.010616 369.406369,264.682585 368.897049,264.458139 C368.387729,264.233692 367.848203,264.121471 367.278455,264.121471 C366.708708,264.121471 366.169182,264.233692 365.659862,264.458139 C365.150542,264.682585 364.705972,265.010616 364.32614,265.442244 C363.946309,265.873871 363.64849,266.404764 363.432677,267.03494 C363.216863,267.665115 363.108958,268.385922 363.108958,269.197381 Z M360.778183,269.197381 C360.778183,268.213271 360.916302,267.293919 361.192543,266.439297 C361.468784,265.584676 361.88314,264.842288 362.435623,264.212112 C362.988106,263.581937 363.670066,263.085573 364.481525,262.723006 C365.292984,262.360439 366.225285,262.179159 367.278455,262.179159 C368.348891,262.179159 369.285508,262.360439 370.088334,262.723006 C370.89116,263.085573 371.568805,263.581937 372.121288,264.212112 C372.67377,264.842288 373.088126,265.584676 373.364368,266.439297 C373.640609,267.293919 373.778728,268.213271 373.778728,269.197381 C373.778728,270.181491 373.640609,271.096527 373.364368,271.942516 C373.088126,272.788505 372.67377,273.526576 372.121288,274.156752 C371.568805,274.786928 370.89116,275.278975 370.088334,275.632909 C369.285508,275.986844 368.348891,276.163808 367.278455,276.163808 C366.225285,276.163808 365.292984,275.986844 364.481525,275.632909 C363.670066,275.278975 362.988106,274.786928 362.435623,274.156752 C361.88314,273.526576 361.468784,272.788505 361.192543,271.942516 C360.916302,271.096527 360.778183,270.181491 360.778183,269.197381 Z M376.290785,262.489929 L376.290785,275.878936 L378.492072,275.878936 L378.492072,269.922511 C378.492072,269.059257 378.578397,268.295288 378.751047,267.630582 C378.923698,266.965876 379.199936,266.400453 379.579767,265.934296 C379.959599,265.468139 380.460279,265.11421 381.081822,264.872499 C381.703365,264.630787 382.454385,264.509934 383.334905,264.509934 L383.334905,262.179159 C382.143614,262.144629 381.159519,262.386336 380.38259,262.904289 C379.605661,263.422241 378.949598,264.225056 378.41438,265.312756 L378.362585,265.312756 L378.362585,262.489929 L376.290785,262.489929 Z M385.121832,257.388121 L385.121832,275.878936 L387.32312,275.878936 L387.32312,270.803026 L389.39492,268.886611 L393.978777,275.878936 L396.775707,275.878936 L391.078257,267.358658 L396.387244,262.489929 L393.434929,262.489929 L387.32312,268.342763 L387.32312,257.388121 L385.121832,257.388121 Z" id="web-framework" fill="#383A3F"></path>
            </g>
        </g>
    </g>
</svg>